<?xml version="1.0" encoding="utf-8"?>
<!-- Generator: Adobe Illustrator 18.0.0, SVG Export Plug-In . SVG Version: 6.00 Build 0)  -->
<!DOCTYPE svg PUBLIC "-//W3C//DTD SVG 1.1//EN" "http://www.w3.org/Graphics/SVG/1.1/DTD/svg11.dtd">
<svg version="1.1" id="Camada_1" xmlns="http://www.w3.org/2000/svg" xmlns:xlink="http://www.w3.org/1999/xlink" x="0px" y="0px"
	 viewBox="0 0 427 632.8" enable-background="new 0 0 427 632.8" xml:space="preserve">
<g>
	<path fill="#F7931E" stroke="#F7931E" stroke-width="5" stroke-miterlimit="10" d="M309.3,449c-24.6-18.1-52-91.3-33.4-116.9
		c18.6-25.6,72.9-9.8,97.5,8.2c24.6,18.1,29.4,53.4,10.8,79C365.6,445,333.9,467.1,309.3,449z"/>
	<path fill="#FBAE17" stroke="#F7931E" stroke-width="5" stroke-miterlimit="10" d="M309.4,442.9c-24.5-18.5-51.9-91.3-33.4-115.8
		s72.7-7.3,97.2,11.2c24.5,18.5,29.4,53.4,10.8,77.9C365.6,440.8,333.9,461.5,309.4,442.9z"/>
	<g>
		<g>
			<path fill="#F7931E" d="M390.6,401.3c-23.5-20.8-48.5-39.8-74.8-56.9c-3.3-2.1-6.3,3.1-3,5.2c25.9,16.8,50.5,35.5,73.6,55.9
				C389.3,408.1,393.5,403.9,390.6,401.3L390.6,401.3z"/>
		</g>
	</g>
	<g>
		<g>
			<path fill="#F7931E" d="M360.2,434.7c-21.3-22.3-41.6-45.6-61-69.7c-2.4-3-6.6,1.3-4.2,4.2c19.3,24.1,39.7,47.3,61,69.7
				C358.6,441.7,362.8,437.5,360.2,434.7L360.2,434.7z"/>
		</g>
	</g>
	<path fill="#F7931E" stroke="#F7931E" stroke-width="5" stroke-miterlimit="10" d="M70.6,319.6c0-77.1,72.7-143.1,149.8-143.1
		S360.1,239,360.1,316.2S257.1,550.6,180,550.6S70.6,396.8,70.6,319.6z"/>
	<g>
		<path fill="#C1272D" d="M62.2,225.8c-6.2,9.4-19.4,12.6-34.8,9.9l30.8,20.4l28,18.5l14.4-21.8l15.9-24l-29.3-19.4L58,190.2
			C66.2,203.3,68.3,216.6,62.2,225.8z"/>
		<path fill="#F15A24" d="M67.8,236c-6.2,9.4-19.4,12.6-34.8,9.9l30.8,20.4l28,18.5l14.4-21.8l15.9-24l-29.3-19.4l-29.2-19.3
			C71.8,213.4,73.9,226.7,67.8,236z"/>
	</g>
	<g>
		<path fill="#C1272D" d="M40,291.3c-1.5,11.1-11.9,19.8-26.9,24.2l36.6,4.8l33.3,4.4l3.4-25.9l3.8-28.5l-34.9-4.6l-34.7-4.6
			C33.8,269.3,41.5,280.3,40,291.3z"/>
		<path fill="#F15A24" d="M48.7,298.7c-1.5,11.1-11.9,19.8-26.9,24.2l36.6,4.8l33.3,4.4l3.4-25.9l3.8-28.5L64,273.1l-34.7-4.6
			C42.4,276.7,50.1,287.7,48.7,298.7z"/>
	</g>
	<g>
		<path fill="#C1272D" d="M42.2,354.4c2,11.1-5.3,22.5-18.3,31.3l36.4-6.6l33-6l-4.6-25.7l-5.1-28.3L49,325.4l-34.4,6.2
			C29.6,335.3,40.3,343.5,42.2,354.4z"/>
		<path fill="#F15A24" d="M50.6,360.2c2,11.1-5.3,22.5-18.3,31.3l36.4-6.6l33-6l-4.6-25.7L92,324.9l-34.6,6.2l-34.4,6.2
			C37.9,341.1,48.6,349.2,50.6,360.2z"/>
	</g>
	<g>
		<path fill="#C1272D" d="M102.8,173.6c-8.6,7.2-22.2,6.6-36.2-0.4l23.7,28.3l21.6,25.7l20-16.8l22-18.5l-22.6-27l-22.5-26.8
			C113.1,153.1,111.3,166.5,102.8,173.6z"/>
		<path fill="#F15A24" d="M105.9,185.7c-8.6,7.2-22.2,6.6-36.2-0.4l23.7,28.3l21.6,25.7l20-16.8l22-18.5l-22.6-27L112,150.4
			C116.2,165.3,114.5,178.6,105.9,185.7z"/>
	</g>
	<g>
		<path fill="#C1272D" d="M152,141.4c-9.8,5.5-23,2.3-35.5-7.1l18,32.3l16.4,29.3l22.8-12.7l25.1-14l-17.1-30.7l-17-30.5
			C166,123.2,161.7,136,152,141.4z"/>
		<path fill="#F15A24" d="M156.9,148.5c-9.8,5.5-23,2.3-35.5-7.1l18,32.3l16.4,29.3l22.8-12.7l25.1-14l-17.1-30.7l-17-30.5
			C170.8,130.4,166.6,143.1,156.9,148.5z"/>
	</g>
	<path fill="#F7931E" d="M223.3,85.7c5.8-16.7-4.4-60.3-21.1-66.1s-37.1,19.8-42.9,36.5c-5.8,16.7,3.1,34.9,19.8,40.7
		S217.6,102.4,223.3,85.7z"/>
	<path fill="#F7931E" d="M305.2,80.6c5.8-16.7-4.4-60.3-21.1-66.1S247,34.4,241.3,51.1c-5.8,16.7,3.1,34.9,19.8,40.7
		C277.7,97.6,299.5,97.3,305.2,80.6z"/>
	<path fill="#F7931E" stroke="#F7931E" stroke-width="5" stroke-miterlimit="10" d="M319.9,263.5h-107c-27.5,0-50-22.5-50-50v-107
		c0-27.5,22.5-50,50-50h107c27.5,0,50,22.5,50,50v107C369.9,241,347.4,263.5,319.9,263.5z"/>
	<path fill="#F7931E" d="M54.5,318.9c0-77.1,72.7-143.1,149.8-143.1S344,238.3,344,315.5s-103,234.4-180.1,234.4
		S54.5,396.1,54.5,318.9z"/>
	<path fill="#FBAE17" d="M63.2,321.5c0-77.1,72.7-143.1,149.8-143.1S352.7,240.9,352.7,318s-103,234.4-180.1,234.4
		S63.2,398.6,63.2,321.5z"/>
	<path fill="#F7931E" stroke="#F7931E" stroke-width="5" stroke-miterlimit="10" d="M225.1,350.3c0-28.6,23.5-53,48.5-53
		s45.2,23.2,45.2,51.7c0,28.6-33.4,86.8-58.3,86.8S225.1,378.8,225.1,350.3z"/>
	<path fill="#FBAE17" d="M231.8,357.2c0-24.6,20.3-45.6,41.8-45.6s39,19.9,39,44.5s-28.7,74.7-50.2,74.7S231.8,381.8,231.8,357.2z"
		/>
	<path fill="#FBAE17" d="M313,80.6c4.6-17.1-8.7-59.8-25.8-64.4s-35.6,22.4-40.1,39.4c-4.6,17.1,5.5,34.6,22.6,39.2
		S308.4,97.6,313,80.6z"/>
	<path fill="#F7931E" stroke="#F7931E" stroke-width="5" stroke-miterlimit="10" d="M301.3,68.1c2.7-10.6-6-36.8-16.5-39.5
		S263,42.7,260.3,53.3s3.8,21.3,14.3,24S298.6,78.7,301.3,68.1z"/>
	<path fill="#F7931E" stroke="#F7931E" stroke-width="5" stroke-miterlimit="10" d="M319.4,271.1h-94.1c-27.5,0-50-22.5-50-50v-107
		c0-27.5,22.5-50,50-50h94.1c27.5,0,50,22.5,50,50v107C369.4,248.6,346.9,271.1,319.4,271.1z"/>
	<path fill="#FBAE17" d="M326.7,264h-107c-27.5,0-50-22.5-50-50V107c0-27.5,22.5-50,50-50h107c27.5,0,50,22.5,50,50v107
		C376.7,241.5,354.2,264,326.7,264z"/>
	<path fill="#F7931E" d="M322.2,184.9c-4.1-35.1,11.5-65.7,35-68.5c23.5-2.8,45.8,23.4,50,58.5c1.8,15.2-0.1,29.6-4.8,41.3
		c-6.1,15.2-57.4,20.5-66.9,6.2C328.8,212.3,324,199.3,322.2,184.9z"/>
	<path fill="#FBAE17" d="M233.2,84.2c3.8-17.3-11.4-59.3-28.7-63.1S170,45,166.2,62.3s7.1,34.3,24.4,38.1
		C207.8,104.2,229.4,101.4,233.2,84.2z"/>
	<path fill="#F7931E" stroke="#F7931E" stroke-width="5" stroke-miterlimit="10" d="M220.3,73.9c2.6-10.6-6.3-36.8-16.9-39.4
		c-10.6-2.6-21.6,14.3-24.2,25c-2.6,10.6,3.9,21.3,14.6,23.9C204.4,86,217.7,84.5,220.3,73.9z"/>
	<path fill="#F7931E" stroke="#F7931E" stroke-width="5" stroke-miterlimit="10" d="M96.2,455.2c25.2-19.7,53.8-94.4,35.1-118.4
		s-74.3-4.5-99.6,15.3S1.2,407.2,20,431.2S71,474.9,96.2,455.2z"/>
	<path fill="#F7931E" stroke="#F7931E" stroke-width="5" stroke-miterlimit="10" d="M224.7,588.6c0.8-23.9-32.9-76.3-59.1-77.1
		s-43.7,40.3-44.5,64.2c-0.8,23.9,19.8,44,46,44.9C193.3,621.5,223.9,612.6,224.7,588.6z"/>
	<path fill="#FBAE17" stroke="#F7931E" stroke-width="5" stroke-miterlimit="10" d="M218.9,589.8c3.5-25.1-23-83.6-48.1-87.1
		s-46.7,38.1-50.2,63.3s14,48.3,39.1,51.8C184.9,621.3,215.4,614.9,218.9,589.8z"/>
	<g>
		<g>
			<path fill="#F7931E" d="M152.7,614.1c1.6-25.4,5-50.5,10.3-75.4c0.8-3.8-5-5.4-5.8-1.6c-5.4,25.4-8.9,51.1-10.5,77
				C146.4,617.9,152.4,617.9,152.7,614.1L152.7,614.1z"/>
		</g>
	</g>
	<g>
		<g>
			<path fill="#F7931E" d="M189.9,615.8c-0.6-25.5-2.3-50.9-5.1-76.2c-0.4-3.8-6.4-3.8-6,0c2.8,25.3,4.5,50.7,5.1,76.2
				C184,619.6,190,619.6,189.9,615.8L189.9,615.8z"/>
		</g>
	</g>
	<path fill="#E6E6E6" stroke="#F7931E" stroke-width="5" stroke-miterlimit="10" d="M333.5,177.7c-3.3-28.3,9.3-53.1,28.2-55.3
		c18.9-2.2,37,18.9,40.3,47.2c1.5,12.3-0.1,23.9-3.9,33.3c-4.9,12.3-46.3,16.6-54,5C338.7,199.8,334.8,189.4,333.5,177.7z"/>
	
		<ellipse transform="matrix(-0.9931 0.1174 -0.1174 -0.9931 746.0402 273.8722)" fill="#00A99D" cx="365" cy="158.9" rx="28.7" ry="34.3"/>
	<circle fill="#F7931E" cx="357.7" cy="237.6" r="59.7"/>
	<path fill="#FBAE17" stroke="#F7931E" stroke-width="5" stroke-miterlimit="10" d="M99.9,454.3c24.5-18.5,51.9-91.3,33.4-115.8
		c-18.5-24.5-72.7-7.3-97.2,11.2s-29.4,53.4-10.8,77.9C43.8,452.1,75.4,472.8,99.9,454.3z"/>
	<g>
		<g>
			<path fill="#F7931E" d="M22,417.8c23.1-20.5,47.7-39.1,73.6-55.9c3.2-2.1,0.2-7.3-3-5.2c-26.3,17.1-51.3,36.1-74.8,56.9
				C14.8,416.2,19.1,420.4,22,417.8L22,417.8z"/>
		</g>
	</g>
	<g>
		<g>
			<path fill="#F7931E" d="M318.6,256.8c30.1-6.8,60.6-11.5,91.4-13.8c3.8-0.3,3.9-6.3,0-6c-31.3,2.4-62.4,7-93,14
				C313.3,251.9,314.9,257.7,318.6,256.8L318.6,256.8z"/>
		</g>
	</g>
	<g>
		<g>
			<path fill="#F7931E" d="M52.4,451.2c21.3-22.3,41.6-45.6,61-69.7c2.4-3-1.8-7.3-4.2-4.2c-19.3,24.1-39.7,47.3-61,69.7
				C45.5,449.8,49.8,454,52.4,451.2L52.4,451.2z"/>
		</g>
	</g>
	<circle fill="#FBAE17" stroke="#F7931E" stroke-width="5" stroke-miterlimit="10" cx="360.7" cy="240" r="52.2"/>
	<circle fill="#8C6239" cx="363.9" cy="159" r="18.8"/>
	<circle fill="#FFFFFF" stroke="#8C6239" stroke-width="6" stroke-miterlimit="10" cx="361.9" cy="157" r="12"/>
	<path fill="#F7931E" d="M323.7,194.2c8.3-34.6-7.7-68.1-35.8-74.8s-57.5,15.9-65.8,50.5c-3.6,15-2.6,29.8,1.9,42.3
		c5.9,16.3,67.3,30.2,80.1,17.4C313.2,220.7,320.2,208.4,323.7,194.2z"/>
	<path fill="#E6E6E6" stroke="#F7931E" stroke-width="5" stroke-miterlimit="10" d="M311.2,189.1c6.6-27.7-5.6-54.4-27.2-59.6
		s-44.6,13.1-51.2,40.8c-2.9,12-2.2,23.9,1.2,33.8c4.5,13,51.9,23.7,61.9,13.4C302.9,210.3,308.4,200.5,311.2,189.1z"/>
	<circle fill="#00A99D" cx="276.3" cy="164.6" r="34.9"/>
	<circle fill="#8C6239" cx="285.2" cy="168" r="18.8"/>
	<circle fill="#FFFFFF" stroke="#8C6239" stroke-width="6" stroke-miterlimit="10" cx="286.7" cy="164.4" r="12"/>
	<circle fill="#F7931E" stroke="#F7931E" stroke-width="5" stroke-miterlimit="10" cx="361.6" cy="237.7" r="30.9"/>
	<circle fill="#FBAE17" cx="362.7" cy="239.9" r="24.6"/>
	<g>
		<path fill="#42210B" d="M257.5,47.8c-5.1-2.4-10.2-4.4-15.2-5.8c15.5,15.9,22.2,33.9,15.6,47.6c-4.5,9.4-14.4,15.2-27.2,17.3
			c27.9,12.9,56.3,10.6,63.9-5.4C302.4,85.4,285.8,61.3,257.5,47.8z"/>
		<path fill="#42210B" d="M263.7,48.4c-1.3-3.9-3.1-7.5-5.3-10.7c-4,17.3-16.2,31.9-33.7,37.6c-11.9,3.9-24.3,3-35.2-1.6
			c7.4,21.1,29.5,32.8,49.8,26.2C259.9,93.1,270.8,70.1,263.7,48.4z"/>
		<path fill="#42210B" d="M267.2,60.1c-4.8,2-9.3,4.3-13.3,6.9c20.4-0.5,37,6.4,42.5,19.8c3.8,9.1,1.7,19.8-4.7,30
			c25.9-11.1,41.7-32.3,35.3-47.9C320.6,53.1,293.8,49.1,267.2,60.1z"/>
		<path fill="#42210B" d="M299.8,49.7c-3.9,1.6-7.5,3.6-10.8,5.8c17,0.5,31.2,7.8,36.4,20.6c3.6,8.7,2.4,18.6-2.4,27.8
			c21.1-9,33.2-28.1,27.1-43C343.9,45.8,321.4,40.8,299.8,49.7z"/>
		<path fill="#42210B" d="M252.8,64.1c-0.3,2.9-0.1,5.8,0.4,8.5c8-10.1,20.8-16.1,34.5-14.7c9.4,0.9,17.7,5.1,23.8,11.3
			c1.2-15.9-10.5-30-26.5-31.6C268.8,36.1,254.4,47.9,252.8,64.1z"/>
		<path fill="#42210B" d="M223.3,74.6c-0.4,4.1-0.3,8,0.1,11.8c8.4-14.3,21.4-23,35.2-21.7c9.4,0.9,17.5,6.4,23.5,14.7
			c1.8-22.1-9.4-41.1-25.4-42.7C240.4,35.1,225.5,52.1,223.3,74.6z"/>
	</g>
	<g>
		<path fill="#8C6239" d="M263.6,45.8c-5.1-2.4-10.2-4.4-15.2-5.8c15.5,15.9,22.2,33.9,15.6,47.6c-4.5,9.4-14.4,15.2-27.2,17.3
			c27.9,12.9,56.3,10.6,63.9-5.4C308.4,83.4,291.8,59.3,263.6,45.8z"/>
		<path fill="#8C6239" d="M269.7,46.4c-1.3-3.9-3.1-7.5-5.3-10.7c-4,17.3-16.2,31.9-33.7,37.6c-11.9,3.9-24.3,3-35.2-1.6
			c7.4,21.1,29.5,32.8,49.8,26.2C265.9,91.1,276.9,68.1,269.7,46.4z"/>
		<path fill="#8C6239" d="M273.3,58.1c-4.8,2-9.3,4.3-13.3,6.9c20.4-0.5,37,6.4,42.5,19.8c3.8,9.1,1.7,19.8-4.7,30
			c25.9-11.1,41.7-32.3,35.3-47.9C326.6,51.1,299.8,47.1,273.3,58.1z"/>
		<path fill="#8C6239" d="M305.8,47.7c-3.9,1.6-7.5,3.6-10.8,5.8c17,0.5,31.2,7.8,36.4,20.6c3.6,8.7,2.4,18.6-2.4,27.8
			c21.1-9,33.2-28.1,27.1-43C349.9,43.8,327.4,38.8,305.8,47.7z"/>
		<path fill="#8C6239" d="M258.8,62.1c-0.3,2.9-0.1,5.8,0.4,8.5c8-10.1,20.8-16.1,34.5-14.7c9.4,0.9,17.7,5.1,23.8,11.3
			c1.2-15.9-10.5-30-26.5-31.6C274.8,34.1,260.4,45.9,258.8,62.1z"/>
		<path fill="#8C6239" d="M229.3,72.6c-0.4,4.1-0.3,8,0.1,11.8c8.4-14.3,21.4-23,35.2-21.7c9.4,0.9,17.5,6.4,23.5,14.7
			c1.8-22.1-9.4-41.1-25.4-42.7C246.4,33.1,231.5,50.1,229.3,72.6z"/>
	</g>
</g>
</svg>
